<svg width="474" height="474" viewBox="0 0 474 474" fill="none" xmlns="http://www.w3.org/2000/svg">
<rect width="474" height="474" fill="black"/>
<path d="M145.5 328.2C128.1 328.2 117.1 321 112.5 306.6C106.1 313.4 99.9 318.8 93.9 322.8C88.1 326.6 80 328.5 69.6 328.5C58 328.5 48.5 325.2 41.1 318.6C33.9 312 30.3 302.5 30.3 290.1C30.3 282.9 31.9 276.4 35.1 270.6C38.3 264.8 44.1 259.4 52.5 254.4C60.9 249.4 72.8 244.7 88.2 240.3C91.2 239.3 94.7 238.3 98.7 237.3C102.7 236.3 106.8 235.3 111 234.3V224.4C111 211 109.3 201.9 105.9 197.1C102.7 192.3 96.3 189.9 86.7 189.9C85.3 189.9 84 189.9 82.8 189.9C81.6 189.9 80.2 190 78.6 190.2L77.1 203.4C76.9 213.2 74.6 220.3 70.2 224.7C66 229.1 61 231.3 55.2 231.3C44.2 231.3 37.5 226.3 35.1 216.3C35.9 203.9 42.2 193.8 54 186C65.8 178.2 82.5 174.3 104.1 174.3C123.3 174.3 137 178.7 145.2 187.5C153.6 196.3 157.8 210.8 157.8 231V298.2C157.8 304 160 306.9 164.4 306.9C166 306.9 167.5 306.5 168.9 305.7C170.3 304.7 171.8 302.9 173.4 300.3L181.5 305.7C177.9 313.7 173.2 319.5 167.4 323.1C161.8 326.5 154.5 328.2 145.5 328.2ZM74.7 282.3C74.7 289.7 76.4 295.2 79.8 298.8C83.4 302.4 87.7 304.2 92.7 304.2C94.9 304.2 97.2 303.7 99.6 302.7C102 301.7 105.8 299.4 111 295.8V247.2C108.4 248 105.8 248.9 103.2 249.9C100.8 250.7 98.7 251.5 96.9 252.3C90.1 255.1 84.7 259.1 80.7 264.3C76.7 269.3 74.7 275.3 74.7 282.3ZM188.775 324V309.9L204.975 306.3C205.175 299.1 205.275 291.3 205.275 282.9C205.275 274.5 205.275 267.2 205.275 261V243.6C205.275 235.4 205.175 229.1 204.975 224.7C204.975 220.1 204.775 214.8 204.375 208.8L186.075 206.1V194.4L245.175 174.3L250.575 177.6L252.375 199.2C259.375 191 266.675 184.8 274.275 180.6C282.075 176.4 290.375 174.3 299.175 174.3C319.775 174.3 333.075 183.2 339.075 201C347.275 191 355.175 184.1 362.775 180.3C370.575 176.3 378.775 174.3 387.375 174.3C402.575 174.3 413.675 178.7 420.675 187.5C427.675 196.3 431.175 209.6 431.175 227.4V261C431.175 267.4 431.175 274.8 431.175 283.2C431.175 291.6 431.275 299.4 431.475 306.6L446.475 309.9V324H369.075V309.9L383.775 306.3C383.975 299.1 384.075 291.4 384.075 283.2C384.075 274.8 384.075 267.4 384.075 261V231.9C384.075 220.7 382.775 213.2 380.175 209.4C377.575 205.4 373.175 203.4 366.975 203.4C358.575 203.4 350.175 207 341.775 214.2C341.975 216 342.075 217.9 342.075 219.9C342.275 221.7 342.375 223.7 342.375 225.9V261C342.375 267.6 342.375 275.1 342.375 283.5C342.375 291.7 342.475 299.5 342.675 306.9L356.775 309.9V324H279.375V309.9L294.975 306.3C295.175 299.1 295.275 291.4 295.275 283.2C295.275 274.8 295.275 267.4 295.275 261V232.2C295.275 221.6 293.975 214.2 291.375 210C288.975 205.6 284.475 203.4 277.875 203.4C273.675 203.4 269.475 204.4 265.275 206.4C261.075 208.4 257.075 211 253.275 214.2V261C253.275 267.2 253.275 274.6 253.275 283.2C253.275 291.6 253.375 299.5 253.575 306.9L267.675 309.9V324H188.775Z" fill="white"/>
</svg>
